<?xml version="1.0" encoding="UTF-8" standalone="no"?>
<!DOCTYPE svg PUBLIC "-//W3C//DTD SVG 1.1//EN" "http://www.w3.org/Graphics/SVG/1.1/DTD/svg11.dtd">
<svg width="100%" height="100%" viewBox="0 0 271 29" version="1.1" xmlns="http://www.w3.org/2000/svg" xmlns:xlink="http://www.w3.org/1999/xlink" xml:space="preserve" xmlns:serif="http://www.serif.com/" style="fill-rule:evenodd;clip-rule:evenodd;stroke-linejoin:round;stroke-miterlimit:2;">
    <g transform="matrix(1,0,0,1,-21.3618,-975.55)">
        <g transform="matrix(0.94375,0,0,0.94375,0,0)">
            <g transform="matrix(1.04085,0,0,0.889922,0.768915,172.811)">
                <g id="Twitter-Icon" serif:id="Twitter Icon" transform="matrix(1.34292,0,0,1.57067,-371.136,-5029.45)">
                    <path d="M313.539,3822.98C313.548,3823.2 313.551,3823.42 313.551,3823.64C313.551,3830.31 308.602,3838.01 299.552,3838.01C296.772,3838.01 294.187,3837.17 292.009,3835.74C292.394,3835.78 292.785,3835.81 293.182,3835.81C295.487,3835.81 297.61,3835 299.294,3833.64C297.141,3833.61 295.323,3832.14 294.696,3830.14C294.997,3830.2 295.307,3830.23 295.624,3830.23C296.071,3830.23 296.505,3830.17 296.921,3830.05C294.668,3829.59 292.971,3827.55 292.971,3825.1L292.971,3825.04C293.635,3825.41 294.395,3825.64 295.202,3825.67C293.88,3824.76 293.011,3823.21 293.011,3821.46C293.011,3820.54 293.253,3819.67 293.679,3818.92C296.105,3821.98 299.732,3823.99 303.821,3824.2C303.737,3823.83 303.694,3823.44 303.694,3823.05C303.694,3820.26 305.897,3818 308.615,3818C310.03,3818 311.308,3818.61 312.205,3819.59C313.328,3819.37 314.38,3818.95 315.332,3818.37C314.963,3819.55 314.184,3820.54 313.166,3821.16C314.162,3821.04 315.112,3820.77 315.993,3820.37C315.332,3821.38 314.5,3822.27 313.539,3822.98Z" style="fill:rgb(229,230,230);"/>
                </g>
                <path d="M53.018,998.799L50.784,998.799L49.003,982.858L47.221,998.799L44.987,998.799L47.985,975.647L49.088,975.647C49.936,975.647 50.077,976.276 50.162,976.904L53.018,998.799Z" style="fill:rgb(217,217,217);fill-rule:nonzero;"/>
                <path d="M49.003,1000.43C49.419,1001.05 50.067,1001.45 50.784,1001.45L53.018,1001.45C53.678,1001.45 54.305,1001.11 54.734,1000.52C55.164,999.938 55.354,999.163 55.255,998.4L52.397,976.492C52.262,975.492 51.926,974.571 51.311,973.931C50.826,973.428 50.15,973.002 49.088,973.002L47.985,973.002C46.866,973.002 45.915,973.958 45.748,975.251L42.75,998.403C42.652,999.165 42.842,999.94 43.272,1000.52C43.702,1001.11 44.328,1001.45 44.987,1001.45L47.221,1001.45C47.939,1001.45 48.586,1001.05 49.003,1000.43ZM53.018,998.799L50.784,998.799L49.003,982.858L47.221,998.799L44.987,998.799L47.985,975.647L49.088,975.647C49.936,975.647 50.077,976.276 50.162,976.904L53.018,998.799Z" style="fill:rgb(64,64,64);"/>
                <path d="M62.746,975.647L62.746,998.303C62.746,998.469 62.831,998.799 63.312,998.799L64.754,998.799L64.754,988.414L65.97,988.414C67.921,988.414 68.854,986.793 68.854,984.544L68.854,978.558C68.854,976.937 67.638,975.647 66.281,975.647L62.746,975.647ZM66.903,985.074C66.846,985.702 66.394,986.198 65.828,986.198L64.754,986.198L64.754,977.863L65.828,977.863C66.394,977.863 66.846,978.36 66.903,978.988L66.903,985.074Z" style="fill:rgb(217,217,217);fill-rule:nonzero;"/>
                <path d="M79.713,975.647L79.713,998.303C79.713,998.469 79.798,998.799 80.279,998.799L81.721,998.799L81.721,988.414L82.937,988.414C84.888,988.414 85.821,986.793 85.821,984.544L85.821,978.558C85.821,976.937 84.605,975.647 83.248,975.647L79.713,975.647ZM83.87,985.074C83.813,985.702 83.361,986.198 82.795,986.198L81.721,986.198L81.721,977.863L82.795,977.863C83.361,977.863 83.813,978.36 83.87,978.988L83.87,985.074Z" style="fill:rgb(217,217,217);fill-rule:nonzero;"/>
                <path d="M98.773,996.451L98.773,976.375C98.773,975.978 98.49,975.681 98.15,975.647L96.736,975.647L96.736,998.799L101.6,998.799C102.251,998.799 102.562,998.469 102.703,998.171C102.788,997.973 103.127,997.046 103.354,996.451L98.773,996.451Z" style="fill:rgb(217,217,217);fill-rule:nonzero;"/>
                <path d="M112.374,975.647L112.374,998.303C112.403,998.469 112.487,998.799 112.968,998.799L114.41,998.799L114.41,976.574C114.41,976.177 114.184,975.647 113.59,975.647L112.374,975.647Z" style="fill:rgb(217,217,217);fill-rule:nonzero;"/>
                <path d="M132.113,990.498C131.604,990.762 130.812,991.159 130.642,991.258C130.388,991.424 130.105,991.788 130.105,992.548L130.105,995.657C130.105,996.385 129.624,996.947 129.002,996.947C128.408,996.947 127.927,996.385 127.927,995.657L127.927,978.756C127.927,978.062 128.408,977.5 129.002,977.5C129.624,977.5 130.105,978.062 130.105,978.756L130.105,983.949L131.575,983.155C131.83,983.023 132.113,982.659 132.113,981.898L132.113,978.36C132.113,976.772 131.038,975.449 129.681,975.416L128.436,975.416C127.023,975.416 125.891,976.739 125.891,978.36L125.891,996.087C125.891,997.708 127.023,999.031 128.436,999.031L129.681,999.031C131.038,998.965 132.113,997.675 132.113,996.087L132.113,990.498Z" style="fill:rgb(217,217,217);fill-rule:nonzero;"/>
                <path d="M149.362,998.799L147.128,998.799L145.347,982.858L143.565,998.799L141.331,998.799L144.329,975.647L145.432,975.647C146.28,975.647 146.421,976.276 146.506,976.904L149.362,998.799Z" style="fill:rgb(217,217,217);fill-rule:nonzero;"/>
                <path d="M165.735,975.647L157.648,975.647C157.309,975.647 157.026,975.978 157.026,976.375L157.026,977.996L159.882,977.996L159.882,998.303C159.882,998.469 159.967,998.799 160.447,998.799L161.89,998.799L161.89,978.558C161.918,978.26 162.116,977.996 162.399,977.996L163.982,977.996C164.633,977.996 164.944,977.665 165.057,977.367L165.735,975.647Z" style="fill:rgb(217,217,217);fill-rule:nonzero;"/>
                <path d="M174.869,975.647L174.869,998.303C174.898,998.469 174.982,998.799 175.463,998.799L176.905,998.799L176.905,976.574C176.905,976.177 176.679,975.647 176.085,975.647L174.869,975.647Z" style="fill:rgb(217,217,217);fill-rule:nonzero;"/>
                <path d="M190.705,975.416C189.291,975.416 188.16,976.739 188.16,978.36L188.16,996.12C188.188,997.708 189.32,999.031 190.705,999.031L192.261,999.031C193.618,998.965 194.692,997.708 194.721,996.12L194.721,978.36C194.721,976.772 193.618,975.482 192.261,975.416L190.705,975.416ZM191.271,996.947C190.677,996.914 190.196,996.352 190.196,995.657L190.196,978.789C190.196,978.095 190.677,977.533 191.271,977.5L191.582,977.5C192.176,977.5 192.656,978.062 192.656,978.789L192.656,995.657C192.656,996.385 192.176,996.947 191.582,996.947L191.271,996.947Z" style="fill:rgb(217,217,217);fill-rule:nonzero;"/>
                <path d="M211.659,998.799L211.659,975.647L209.623,975.647L209.623,988.976L207.531,976.937C207.418,976.276 207.22,975.647 206.089,975.647L205.155,975.647L205.155,998.799L207.191,998.799L207.191,985.867L209.369,997.311C209.454,997.774 209.623,998.799 210.726,998.799L211.659,998.799Z" style="fill:rgb(217,217,217);fill-rule:nonzero;"/>
                <path d="M245.593,998.799L245.593,975.647L243.557,975.647L243.557,988.976L241.465,976.937C241.352,976.276 241.154,975.647 240.023,975.647L239.089,975.647L239.089,998.799L241.125,998.799L241.125,985.867L243.303,997.311C243.388,997.774 243.557,998.799 244.66,998.799L245.593,998.799Z" style="fill:rgb(217,217,217);fill-rule:nonzero;"/>
                <path d="M262.758,998.799L260.524,998.799L258.743,982.858L256.961,998.799L254.727,998.799L257.725,975.647L258.828,975.647C259.676,975.647 259.817,976.276 259.902,976.904L262.758,998.799Z" style="fill:rgb(217,217,217);fill-rule:nonzero;"/>
                <path d="M277.859,998.799L279.867,998.799L279.867,975.647L278.622,975.647C277.887,975.647 277.746,976.375 277.717,976.474L275.483,989.803L273.136,976.507C273.136,976.507 273.023,975.647 272.231,975.647L270.987,975.647L270.987,998.799L272.995,998.799L272.995,986.86L274.183,992.912C274.296,993.408 274.522,994.797 275.71,994.797L276.332,994.797L277.859,986.86L277.859,998.799Z" style="fill:rgb(217,217,217);fill-rule:nonzero;"/>
                <path d="M292.422,996.451L292.422,988.414C292.422,988.116 292.648,987.852 292.903,987.852L293.751,987.852C294.402,987.852 294.684,987.521 294.826,987.223C294.911,987.025 295.25,986.066 295.476,985.47L292.422,985.47L292.422,978.591C292.422,978.26 292.62,978.029 292.903,978.029L294.543,978.029C295.193,978.029 295.505,977.665 295.618,977.367L296.296,975.647L291.008,975.647C290.669,975.647 290.414,975.945 290.386,976.309L290.386,998.799L294.911,998.799C295.561,998.799 295.872,998.469 296.014,998.171C296.098,997.973 296.438,997.046 296.664,996.451L292.422,996.451Z" style="fill:rgb(217,217,217);fill-rule:nonzero;"/>
            </g>
        </g>
    </g>
</svg>
