<?xml version="1.0" encoding="UTF-8" standalone="no"?>
<!DOCTYPE svg PUBLIC "-//W3C//DTD SVG 1.1//EN" "http://www.w3.org/Graphics/SVG/1.1/DTD/svg11.dtd">
<svg width="100%" height="100%" viewBox="0 0 33 33" version="1.1" xmlns="http://www.w3.org/2000/svg" xmlns:xlink="http://www.w3.org/1999/xlink" xml:space="preserve" xmlns:serif="http://www.serif.com/" style="fill-rule:evenodd;clip-rule:evenodd;stroke-linejoin:round;stroke-miterlimit:2;">
    <g transform="matrix(1,0,0,1,-1212.15,-772.505)">
        <g transform="matrix(0.438662,0,0,0.438662,532.827,431.33)">
            <g transform="matrix(1.0596,0,0,1.0596,0,0)">
                <path d="M1497,734.012C1477.41,734.012 1461.51,749.914 1461.51,769.5C1461.51,789.086 1477.41,804.988 1497,804.988C1516.59,804.988 1532.49,789.086 1532.49,769.5C1532.49,749.914 1516.59,734.012 1497,734.012ZM1497,737C1514.94,737 1529.5,751.563 1529.5,769.5C1529.5,787.437 1514.94,802 1497,802C1479.06,802 1464.5,787.437 1464.5,769.5C1464.5,751.563 1479.06,737 1497,737Z" style="fill:rgb(204,204,204);"/>
            </g>
        </g>
        <g transform="matrix(0.438662,0,0,0.438662,532.827,431.33)">
            <g id="Plus-Icon" serif:id="Plus Icon" transform="matrix(1.81976,0,0,1.81976,40.3412,-4948.72)">
                <path d="M859.5,3169L851,3169L851,3177.5C851,3178.33 850.328,3179 849.5,3179C848.672,3179 848,3178.33 848,3177.5L848,3169L839.5,3169C838.672,3169 838,3168.33 838,3167.5C838,3166.67 838.672,3166 839.5,3166L848,3166L848,3157.5C848,3156.67 848.672,3156 849.5,3156C850.328,3156 851,3156.67 851,3157.5L851,3166L859.5,3166C860.328,3166 861,3166.67 861,3167.5C861,3168.33 860.328,3169 859.5,3169Z" style="fill:rgb(202,202,202);"/>
            </g>
        </g>
    </g>
</svg>
